<?xml version="1.0" encoding="UTF-8"?>
<svg version="1.1" xmlns="http://www.w3.org/2000/svg" width="88" height="88">
<path d="M0 0 C6.27 0 12.54 0 19 0 C19 0.66 19 1.32 19 2 C19.5775 1.7525 20.155 1.505 20.75 1.25 C21.86375 1.12625 21.86375 1.12625 23 1 C24.75 2.5625 24.75 2.5625 27 5 C28.30309006 5.9299948 29.61661671 6.84545516 30.9375 7.75 C36.70235593 12.00117868 40.5128483 17.96982832 42 25 C42.75505958 36.34195881 41.37916857 45.14499771 34 54 C34.721875 53.525625 35.44375 53.05125 36.1875 52.5625 C38.89475226 51.05847097 40.96194275 50.43400818 44 50 C44.33 49.01 44.66 48.02 45 47 C47.4375 47.6875 47.4375 47.6875 50 49 C51.0066731 51.73239843 51.19824182 53.32597782 50.375 56.125 C50.189375 57.053125 50.189375 57.053125 50 58 C51.43752303 59.62511427 51.43752303 59.62511427 53 61 C52.26418258 62.1549921 51.51069961 63.29874185 50.75 64.4375 C50.33234375 65.07558594 49.9146875 65.71367188 49.484375 66.37109375 C48 68 48 68 46.078125 68.47265625 C43.80650378 68.83912326 43.80650378 68.83912326 42.25994873 70.99884033 C39.30499886 73.61541584 37.67130897 73.51462953 33.76269531 73.54589844 C31.87118744 73.57547638 31.87118744 73.57547638 29.94146729 73.60565186 C28.57035364 73.60731488 27.19923941 73.60854582 25.828125 73.609375 C24.42134701 73.62435931 23.01458661 73.64108699 21.60784912 73.65948486 C17.91220281 73.70314355 14.21679379 73.72315381 10.52093506 73.73822021 C6.74688698 73.75779694 2.97309496 73.7997662 -0.80078125 73.83984375 C-8.20045197 73.91512954 -15.60001516 73.96543045 -23 74 C-23.495 71.525 -23.495 71.525 -24 69 C-25.32 69 -26.64 69 -28 69 C-28 68.34 -28 67.68 -28 67 C-28.61875 66.71125 -29.2375 66.4225 -29.875 66.125 C-32 65 -32 65 -34 63 C-34.625 60.375 -34.625 60.375 -35 58 C-34.01 58 -33.02 58 -32 58 C-32.20625 56.9275 -32.4125 55.855 -32.625 54.75 C-32.9876191 51.12380904 -32.98362069 49.91708924 -31 47 C-29.948125 47.474375 -28.89625 47.94875 -27.8125 48.4375 C-24.89084776 49.69724074 -22.14472233 50.46090474 -19 51 C-18.34 51.33 -17.68 51.66 -17 52 C-17.66 51.34 -18.32 50.68 -19 50 C-24.40413909 41.21827398 -24.15047845 29.42609525 -22 19.6875 C-21.67 18.470625 -21.34 17.25375 -21 16 C-20.34 16 -19.68 16 -19 16 C-17.51854374 14.31255101 -17.51854374 14.31255101 -16.0625 12.1875 C-11.23726115 5.41242038 -11.23726115 5.41242038 -7 4 C-6.525625 3.46375 -6.05125 2.9275 -5.5625 2.375 C-4.7890625 1.694375 -4.7890625 1.694375 -4 1 C-1.8125 1.3125 -1.8125 1.3125 0 2 C0 1.34 0 0.68 0 0 Z M-28 51 C-27.34 52.32 -26.68 53.64 -26 55 C-24.02 55 -22.04 55 -20 55 C-22.66559313 53.22293791 -25.0280615 52.12451727 -28 51 Z M46 51 C45.67 51.66 45.34 52.32 45 53 C45.66 53 46.32 53 47 53 C46.67 52.34 46.34 51.68 46 51 Z M-30 52 C-29 56 -29 56 -29 56 Z M43 53 C42.34 53.66 41.68 54.32 41 55 C42.32 54.67 43.64 54.34 45 54 C44.34 53.67 43.68 53.34 43 53 Z M47 53 C48 56 48 56 48 56 Z M-12 54 C-11 56 -11 56 -11 56 Z M30 54 C29.67 54.66 29.34 55.32 29 56 C29.66 56 30.32 56 31 56 C30.67 55.34 30.34 54.68 30 54 Z M-19 55 C-19 55.33 -19 55.66 -19 56 C-17.02 56 -15.04 56 -13 56 C-13 55.67 -13 55.34 -13 55 C-14.98 55 -16.96 55 -19 55 Z M-32 61 C-31.34 62.32 -30.68 63.64 -30 65 C-29.34 64.67 -28.68 64.34 -28 64 C-28.66 63.01 -29.32 62.02 -30 61 C-30.66 61 -31.32 61 -32 61 Z M48 61 C47.34 62.32 46.68 63.64 46 65 C47.32 64.34 48.64 63.68 50 63 C50 62.34 50 61.68 50 61 C49.34 61 48.68 61 48 61 Z M-21 70 C-21 70.33 -21 70.66 -21 71 C-1.2 71 18.6 71 39 71 C39 70.67 39 70.34 39 70 C19.2 70 -0.6 70 -21 70 Z " fill="#B27F81" transform="translate(35,10)"/>
<path d="M0 0 C2.22889496 -0.05428973 4.45817471 -0.09292338 6.6875 -0.125 C8.54955078 -0.15980469 8.54955078 -0.15980469 10.44921875 -0.1953125 C13.81237857 -0.01032021 15.9985587 0.54232105 19 2 C18.34 2.33 17.68 2.66 17 3 C17.33 3.99 17.66 4.98 18 6 C18.99 6.33 19.98 6.66 21 7 C21 7.66 21 8.32 21 9 C21.66 9 22.32 9 23 9 C23.33 8.01 23.66 7.02 24 6 C24.66 6 25.32 6 26 6 C26.495 7.485 26.495 7.485 27 9 C26.67 9.66 26.34 10.32 26 11 C26.66 11.33 27.32 11.66 28 12 C28.66 12.99 29.32 13.98 30 15 C30.99 15 31.98 15 33 15 C33.495 17.475 33.495 17.475 34 20 C33.01 20 32.02 20 31 20 C31.495 21.485 31.495 21.485 32 23 C31.505 24.485 31.505 24.485 31 26 C32.32 26 33.64 26 35 26 C35.5327242 34.5235872 34.04240757 40.56633717 29.0625 47.5625 C26.75131263 50.05858236 25.6770594 50.9314248 22.26171875 51.27734375 C20.21894105 51.08922803 18.18179464 50.82870949 16.15625 50.50390625 C11.41840644 49.74749311 6.78984626 49.93697571 2 50 C1.67 46.04 1.34 42.08 1 38 C8.421875 36.14453125 8.421875 36.14453125 11 36 C13.328125 37.44921875 13.328125 37.44921875 15 39 C14.01 41.97 13.02 44.94 12 48 C12.66 48 13.32 48 14 48 C13.67 47.01 13.34 46.02 13 45 C13.66 44.01 14.32 43.02 15 42 C18 43 18 43 19 45 C18.84402344 44.37351563 18.68804687 43.74703125 18.52734375 43.1015625 C18.33269531 42.28429688 18.13804688 41.46703125 17.9375 40.625 C17.64166016 39.40683594 17.64166016 39.40683594 17.33984375 38.1640625 C17 36 17 36 18 34 C18.66 34 19.32 34 20 34 C24 40.875 24 40.875 24 42 C24.66 40.68 25.32 39.36 26 38 C25.34 38 24.68 38 24 38 C22.68 34.7 21.36 31.4 20 28 C16.7 27.67 13.4 27.34 10 27 C10 24.36 10 21.72 10 19 C9.01 18.67 8.02 18.34 7 18 C7.33 17.01 7.66 16.02 8 15 C7.01 14.67 6.02 14.34 5 14 C5.33 15.98 5.66 17.96 6 20 C3.60724825 19.44782652 1.37776099 18.77493483 -0.9375 17.9375 C-3.83862749 17.04939975 -5.9960415 16.82329656 -9 17 C-9.33 16.01 -9.66 15.02 -10 14 C-11.98 14.99 -11.98 14.99 -14 16 C-14 15.01 -14 14.02 -14 13 C-13.01 12.34 -12.02 11.68 -11 11 C-11.99 10.01 -12.98 9.02 -14 8 C-5.738041 1.29612756 -5.738041 1.29612756 -1 1 C-1.99 1.495 -1.99 1.495 -3 2 C-2.67 2.66 -2.34 3.32 -2 4 C-1.01 4 -0.02 4 1 4 C2.32 4 3.64 4 5 4 C5 3.01 5 2.02 5 1 C3.35 1 1.7 1 0 1 C0 0.67 0 0.34 0 0 Z " fill="#F3A532" transform="translate(38,14)"/>
<path d="M0 0 C5.78470211 0.59109326 11.4227188 0.57918757 17.22827148 0.39648438 C18.24643448 0.37050171 19.26459747 0.34451904 20.31361389 0.31774902 C23.52624726 0.23544934 26.73856639 0.14500613 29.95092773 0.05273438 C33.18828506 -0.03919088 36.42562735 -0.12915675 39.66322327 -0.21228027 C41.66778945 -0.26377383 43.67223452 -0.32028989 45.67649841 -0.38244629 C46.58166702 -0.40577026 47.48683563 -0.42909424 48.41943359 -0.453125 C49.21232285 -0.47612671 50.0052121 -0.49912842 50.8221283 -0.52282715 C53.02565875 -0.44684387 54.90226063 -0.06307833 57.01342773 0.55273438 C56.36106999 4.98876707 55.16886882 7.2418522 53.01342773 11.55273438 C34.53342773 11.55273438 16.05342773 11.55273438 -2.98657227 11.55273438 C-7.98657227 2.55273438 -7.98657227 2.55273438 -7.98657227 0.55273438 C-4.79974224 -0.5095423 -3.27964769 -0.39219244 0 0 Z " fill="#91D2E3" transform="translate(18.986572265625,66.447265625)"/>
<path d="M0 0 C1.32 0.33 2.64 0.66 4 1 C3.01 2.485 3.01 2.485 2 4 C3.32 4.33 4.64 4.66 6 5 C5.67 7.64 5.34 10.28 5 13 C5.68707031 12.94199219 6.37414062 12.88398437 7.08203125 12.82421875 C9.78998631 12.6886273 12.30899197 12.65711349 15 13 C18.08859579 16.18218961 18.49739928 19.67763378 19 24 C19.66 24 20.32 24 21 24 C21.33 23.34 21.66 22.68 22 22 C21.67 24.31 21.34 26.62 21 29 C19.68 29.33 18.36 29.66 17 30 C17.226875 29.4225 17.45375 28.845 17.6875 28.25 C18.27095593 25.89006205 18.27095593 25.89006205 16.5625 23.875 C16.046875 23.25625 15.53125 22.6375 15 22 C15 21.34 15 20.68 15 20 C14.34 20 13.68 20 13 20 C13.144375 20.680625 13.28875 21.36125 13.4375 22.0625 C14.06945909 25.36273082 14.54313941 28.67144426 15 32 C14.01 32.495 14.01 32.495 13 33 C12.67 31.68 12.34 30.36 12 29 C11.34 29 10.68 29 10 29 C9.67 30.65 9.34 32.3 9 34 C8.34 34 7.68 34 7 34 C6.79859524 30.37471432 7.14223235 28.13498292 9 25 C4.31506124 22.51112628 1.0555786 23.14312227 -4 24 C-3.649375 24.86625 -3.29875 25.7325 -2.9375 26.625 C-1.92220887 30.28004806 -2.26690794 32.33966623 -3 36 C-2.17757812 35.91621094 -1.35515625 35.83242188 -0.5078125 35.74609375 C4.96679051 35.24667846 10.04728633 34.86382724 15.5 35.6875 C19.23544212 36.18637012 19.72190938 36.17241618 23.125 34.0625 C23.74375 33.381875 24.3625 32.70125 25 32 C23.79618552 34.49361571 22.54571278 36.68143083 21 39 C18.0204901 39.26653946 15.2511418 39.34767784 12.2734375 39.29296875 C11.41062164 39.28872391 10.54780579 39.28447906 9.65884399 39.28010559 C6.89724803 39.26328392 4.13637617 39.22562598 1.375 39.1875 C-0.49478114 39.17245764 -2.3645737 39.15876846 -4.234375 39.14648438 C-8.82319658 39.11336906 -13.41147544 39.06156339 -18 39 C-15.19086948 35.90238367 -13.51192333 35.5595249 -9.3125 35.3125 C-8.31863281 35.24675781 -7.32476562 35.18101563 -6.30078125 35.11328125 C-5.16189453 35.05720703 -5.16189453 35.05720703 -4 35 C-4.53725895 31.62294375 -5.11064623 28.303314 -6 25 C-8.31 24.34 -10.62 23.68 -13 23 C-12.67 24.65 -12.34 26.3 -12 28 C-11.01 28 -10.02 28 -9 28 C-9 28.66 -9 29.32 -9 30 C-11.4375 29.3125 -11.4375 29.3125 -14 28 C-14.8125 25.375 -14.8125 25.375 -15 23 C-13.68 22.34 -12.36 21.68 -11 21 C-11.32484375 20.11248047 -11.32484375 20.11248047 -11.65625 19.20703125 C-14.42179262 11.35852373 -14.42179262 11.35852373 -14 7 C-11.27678692 6.24355192 -9.54191176 5.82968488 -6.8125 6.6875 C-4.68797047 8.22595242 -3.96441531 9.58896173 -3 12 C-1.68 11.34 -0.36 10.68 1 10 C0.7525 8.63875 0.7525 8.63875 0.5 7.25 C0 4 0 4 0 0 Z " fill="#443620" transform="translate(43,28)"/>
<path d="M0 0 C1.051875 0.474375 2.10375 0.94875 3.1875 1.4375 C6.1115162 2.69571303 8.85008367 3.47501395 12 4 C14.50357861 4.8345262 16.66785852 5.79371992 19 7 C18.67 7.66 18.34 8.32 18 9 C17.113125 8.979375 16.22625 8.95875 15.3125 8.9375 C11.69177325 8.90774008 11.69177325 8.90774008 7 10 C8.65 13.3 10.3 16.6 12 20 C30.48 20.33 48.96 20.66 68 21 C69.40620186 16.78139441 70.38379922 13.31340543 71 9 C72.65 9 74.3 9 76 9 C76.495 10.485 76.495 10.485 77 12 C77 11.01 77 10.02 77 9 C77.66 9 78.32 9 79 9 C78.01 7.02 78.01 7.02 77 5 C76.278125 5.515625 75.55625 6.03125 74.8125 6.5625 C71.5804634 8.21442982 70.38391693 8.06351675 67 7 C69.39509338 4.10067643 71.31245243 3.49831724 75 3 C75.33 2.01 75.66 1.02 76 0 C78.4375 0.6875 78.4375 0.6875 81 2 C82.0066731 4.73239843 82.19824182 6.32597782 81.375 9.125 C81.189375 10.053125 81.189375 10.053125 81 11 C82.43752303 12.62511427 82.43752303 12.62511427 84 14 C83.26418258 15.1549921 82.51069961 16.29874185 81.75 17.4375 C81.33234375 18.07558594 80.9146875 18.71367188 80.484375 19.37109375 C79 21 79 21 77.078125 21.47265625 C74.80650378 21.83912326 74.80650378 21.83912326 73.25994873 23.99884033 C70.30499886 26.61541584 68.67130897 26.51462953 64.76269531 26.54589844 C62.87118744 26.57547638 62.87118744 26.57547638 60.94146729 26.60565186 C59.57035364 26.60731488 58.19923941 26.60854582 56.828125 26.609375 C55.42134701 26.62435931 54.01458661 26.64108699 52.60784912 26.65948486 C48.91220281 26.70314355 45.21679379 26.72315381 41.52093506 26.73822021 C37.74688698 26.75779694 33.97309496 26.7997662 30.19921875 26.83984375 C22.79954803 26.91512954 15.39998484 26.96543045 8 27 C7.67 25.35 7.34 23.7 7 22 C5.68 22 4.36 22 3 22 C3 21.34 3 20.68 3 20 C2.071875 19.566875 2.071875 19.566875 1.125 19.125 C-1 18 -1 18 -3 16 C-3.625 13.375 -3.625 13.375 -4 11 C-3.01 11 -2.02 11 -1 11 C-1.20625 9.9275 -1.4125 8.855 -1.625 7.75 C-1.9876191 4.12380904 -1.98362069 2.91708924 0 0 Z M3 4 C3.66 5.32 4.32 6.64 5 8 C6.98 8 8.96 8 11 8 C8.33440687 6.22293791 5.9719385 5.12451727 3 4 Z M1 5 C2 9 2 9 2 9 Z M-1 14 C-0.34 15.32 0.32 16.64 1 18 C1.66 17.67 2.32 17.34 3 17 C2.34 16.01 1.68 15.02 1 14 C0.34 14 -0.32 14 -1 14 Z M79 14 C78.34 15.32 77.68 16.64 77 18 C78.32 17.34 79.64 16.68 81 16 C81 15.34 81 14.68 81 14 C80.34 14 79.68 14 79 14 Z M10 23 C10 23.33 10 23.66 10 24 C29.8 24 49.6 24 70 24 C70 23.67 70 23.34 70 23 C50.2 23 30.4 23 10 23 Z " fill="#6A2322" transform="translate(4,57)"/>
<path d="M0 0 C0.66 0.33 1.32 0.66 2 1 C3.32860925 1.35169068 4.66158328 1.68770276 6 2 C6.495 4.475 6.495 4.475 7 7 C6.01 7 5.02 7 4 7 C4.33 7.99 4.66 8.98 5 10 C4.67 10.99 4.34 11.98 4 13 C5.32 13 6.64 13 8 13 C8.5327242 21.5235872 7.04240757 27.56633717 2.0625 34.5625 C-0.24868737 37.05858236 -1.3229406 37.9314248 -4.73828125 38.27734375 C-6.78105895 38.08922803 -8.81820536 37.82870949 -10.84375 37.50390625 C-15.58159356 36.74749311 -20.21015374 36.93697571 -25 37 C-25.33 33.04 -25.66 29.08 -26 25 C-18.578125 23.14453125 -18.578125 23.14453125 -16 23 C-13.671875 24.44921875 -13.671875 24.44921875 -12 26 C-12.99 28.97 -13.98 31.94 -15 35 C-14.34 35 -13.68 35 -13 35 C-13.495 33.515 -13.495 33.515 -14 32 C-13.34 31.01 -12.68 30.02 -12 29 C-9 30 -9 30 -8 32 C-8.15597656 31.37351562 -8.31195313 30.74703125 -8.47265625 30.1015625 C-8.76462891 28.87566406 -8.76462891 28.87566406 -9.0625 27.625 C-9.35833984 26.40683594 -9.35833984 26.40683594 -9.66015625 25.1640625 C-10 23 -10 23 -9 21 C-8.34 21 -7.68 21 -7 21 C-3 27.875 -3 27.875 -3 29 C1.01940157 22.97089765 1.75109742 17.09732635 1 10 C0.21054206 7.17072876 -0.80194423 4.69562549 -2 2 C-1.34 2 -0.68 2 0 2 C0 1.34 0 0.68 0 0 Z " fill="#FBF715" transform="translate(65,27)"/>
<path d="M0 0 C2.0625 0.4375 2.0625 0.4375 4 1 C4 1.99 4 2.98 4 4 C4.33 3.01 4.66 2.02 5 1 C5.66 1 6.32 1 7 1 C7.12117188 1.56847656 7.24234375 2.13695312 7.3671875 2.72265625 C8.1860175 6.49557294 9.03107086 10.23376848 10.125 13.9375 C11 17 11 17 11 19 C10.01 19.66 9.02 20.32 8 21 C8.18828772 23.44480079 8.18828772 23.44480079 9 26 C10.96758273 27.36020151 10.96758273 27.36020151 13 28 C13 27.34 13 26.68 13 26 C12.01 26 11.02 26 10 26 C9.67 24.35 9.34 22.7 9 21 C11.31 21.33 13.62 21.66 16 22 C17.485 26.455 17.485 26.455 19 31 C17.35 31.33 15.7 31.66 14 32 C14 32.33 14 32.66 14 33 C10.59046955 33.86248992 7.51337009 34.37286887 4 34 C1.12663441 31.8257213 -0.37187126 29.17565705 -2 26 C-2.33902344 25.35160156 -2.67804687 24.70320313 -3.02734375 24.03515625 C-5.36511663 18.76708742 -5.31436546 13.68186458 -5 8 C-4.67 8.66 -4.34 9.32 -4 10 C-3.34 9.67 -2.68 9.34 -2 9 C-1.34227572 5.97065509 -1.34227572 5.97065509 -1 3 C-0.01 2.67 0.98 2.34 2 2 C1.01 1.67 0.02 1.34 -1 1 C-0.67 0.67 -0.34 0.34 0 0 Z " fill="#D59B2D" transform="translate(21,30)"/>
<path d="M0 0 C1.90845703 0.29197266 1.90845703 0.29197266 3.85546875 0.58984375 C5.31919922 0.82380859 5.31919922 0.82380859 6.8125 1.0625 C6.4825 3.3725 6.1525 5.6825 5.8125 8.0625 C6.555 7.711875 7.2975 7.36125 8.0625 7 C11.02385857 5.99044594 11.94203867 6.10567956 14.8125 7.0625 C15.8025 7.0625 16.7925 7.0625 17.8125 7.0625 C18.4725 5.7425 19.1325 4.4225 19.8125 3.0625 C16.1825 3.0625 12.5525 3.0625 8.8125 3.0625 C8.4825 2.4025 8.1525 1.7425 7.8125 1.0625 C13.7525 1.0625 19.6925 1.0625 25.8125 1.0625 C25.4825 1.7225 25.1525 2.3825 24.8125 3.0625 C23.8225 3.0625 22.8325 3.0625 21.8125 3.0625 C22.4725 4.3825 23.1325 5.7025 23.8125 7.0625 C25.2046875 6.815 25.2046875 6.815 26.625 6.5625 C32.62841175 5.62078835 34.77029562 7.01815019 39.8125 10.0625 C39.8125 10.3925 39.8125 10.7225 39.8125 11.0625 C24.9625 11.0625 10.1125 11.0625 -5.1875 11.0625 C-10.1875 2.0625 -10.1875 2.0625 -10.1875 0.0625 C-6.40036807 -1.19987731 -3.93098067 -0.61308873 0 0 Z " fill="#89E4F9" transform="translate(21.1875,66.9375)"/>
<path d="M0 0 C1.32 0.33 2.64 0.66 4 1 C3.01 2.485 3.01 2.485 2 4 C3.32 4.33 4.64 4.66 6 5 C5.67 7.64 5.34 10.28 5 13 C5.68707031 12.94199219 6.37414063 12.88398437 7.08203125 12.82421875 C9.78998631 12.6886273 12.30899197 12.65711349 15 13 C18.08859579 16.18218961 18.49739928 19.67763378 19 24 C19.66 24 20.32 24 21 24 C21.33 23.34 21.66 22.68 22 22 C21.67 24.31 21.34 26.62 21 29 C19.68 29.33 18.36 29.66 17 30 C17.226875 29.4225 17.45375 28.845 17.6875 28.25 C18.27095593 25.89006205 18.27095593 25.89006205 16.5625 23.875 C16.046875 23.25625 15.53125 22.6375 15 22 C15 21.34 15 20.68 15 20 C14.34 20 13.68 20 13 20 C13.144375 20.680625 13.28875 21.36125 13.4375 22.0625 C14.06945909 25.36273082 14.54313941 28.67144426 15 32 C14.01 32.495 14.01 32.495 13 33 C12.67 31.68 12.34 30.36 12 29 C11.34 29 10.68 29 10 29 C9.505 31.475 9.505 31.475 9 34 C8.34 34 7.68 34 7 34 C6.79859524 30.37471432 7.14223235 28.13498292 9 25 C4.31506124 22.51112628 1.0555786 23.14312227 -4 24 C-4.1953125 17.9453125 -4.1953125 17.9453125 -4 16 C-3.34 15.34 -2.68 14.68 -2 14 C-1 15 -1 15 -0.9375 17.5625 C-0.958125 18.366875 -0.97875 19.17125 -1 20 C0.81415483 14.98439546 1.09406607 11.38324646 0.2890625 6.11328125 C0 4 0 4 0 0 Z " fill="#3D321F" transform="translate(43,28)"/>
<path d="M0 0 C3.465 1.485 3.465 1.485 7 3 C6.01 3.33 5.02 3.66 4 4 C5.65 7.3 7.3 10.6 9 14 C27.48 14.33 45.96 14.66 65 15 C66.40620186 10.78139441 67.38379922 7.31340543 68 3 C69.65 3 71.3 3 73 3 C73 3.99 73 4.98 73 6 C73.99 6.66 74.98 7.32 76 8 C75.3125 9.9375 75.3125 9.9375 74 12 C72.33333333 12.33333333 70.66666667 12.66666667 69 13 C68.34 14.32 67.68 15.64 67 17 C47.2 17 27.4 17 7 17 C6.67 15.35 6.34 13.7 6 12 C4.02 12 2.04 12 0 12 C-0.66 10.68 -1.32 9.36 -2 8 C-1.34 7.01 -0.68 6.02 0 5 C0.16713569 2.37468476 0.16713569 2.37468476 0 0 Z " fill="#D64C4F" transform="translate(7,63)"/>
<path d="M0 0 C2.0625 0.4375 2.0625 0.4375 4 1 C3.67 2.010625 3.34 3.02125 3 4.0625 C1.03184325 11.12804113 1.87887177 17.42333694 5 24 C7.333492 26.83411155 7.333492 26.83411155 10 29 C11.33333333 30.33333333 12.66666667 31.66666667 14 33 C10.59046955 33.86248992 7.51337009 34.37286887 4 34 C1.12663441 31.8257213 -0.37187126 29.17565705 -2 26 C-2.33902344 25.35160156 -2.67804687 24.70320313 -3.02734375 24.03515625 C-5.36511663 18.76708742 -5.31436546 13.68186458 -5 8 C-4.67 8.66 -4.34 9.32 -4 10 C-3.34 9.67 -2.68 9.34 -2 9 C-1.34227572 5.97065509 -1.34227572 5.97065509 -1 3 C-0.01 2.67 0.98 2.34 2 2 C1.01 1.67 0.02 1.34 -1 1 C-0.67 0.67 -0.34 0.34 0 0 Z " fill="#F8F319" transform="translate(21,30)"/>
<path d="M0 0 C4.62 0 9.24 0 14 0 C15.35439668 2.70879335 15.06501451 5.00933268 15 8 C15.66 8.33 16.32 8.66 17 9 C16.175 8.835 15.35 8.67 14.5 8.5 C5.23665091 7.17666442 -1.33848226 8.26123391 -9 13.6875 C-9.99 14.450625 -10.98 15.21375 -12 16 C-12.66 15.67 -13.32 15.34 -14 15 C-14 14.34 -14 13.68 -14 13 C-13.01 12.34 -12.02 11.68 -11 11 C-11.99 10.01 -12.98 9.02 -14 8 C-5.738041 1.29612756 -5.738041 1.29612756 -1 1 C-1.99 1.495 -1.99 1.495 -3 2 C-2.67 2.66 -2.34 3.32 -2 4 C-1.01 4 -0.02 4 1 4 C2.32 4 3.64 4 5 4 C5 3.01 5 2.02 5 1 C3.35 1 1.7 1 0 1 C0 0.67 0 0.34 0 0 Z " fill="#99831B" transform="translate(38,14)"/>
<path d="M0 0 C0.66 0.33 1.32 0.66 2 1 C0.35 2.32 -1.3 3.64 -3 5 C-2.01 6.32 -1.02 7.64 0 9 C-0.99 9.99 -1.98 10.98 -3 12 C-1.68 11.34 -0.36 10.68 1 10 C1.33 10.99 1.66 11.98 2 13 C3.2684375 13.1546875 3.2684375 13.1546875 4.5625 13.3125 C9.11216992 14.22243398 13.61175668 15.14900891 16.5 19 C17 21 17 21 16 24 C14.25 23.8125 14.25 23.8125 12 23 C11.38125 22.154375 10.7625 21.30875 10.125 20.4375 C8.19040312 17.66880747 8.19040312 17.66880747 4.875 17.625 C2.06266243 17.83209683 2.06266243 17.83209683 0 19 C0 17.35 0 15.7 0 14 C-0.66 14 -1.32 14 -2 14 C-2.33 15.65 -2.66 17.3 -3 19 C-3.33 18.01 -3.66 17.02 -4 16 C-3.67 15.34 -3.34 14.68 -3 14 C-4.32 14 -5.64 14 -7 14 C-6.34 14.33 -5.68 14.66 -5 15 C-5.33 15.99 -5.66 16.98 -6 18 C-6.33 17.67 -6.66 17.34 -7 17 C-7.66 18.98 -8.32 20.96 -9 23 C-9.66 23 -10.32 23 -11 23 C-12.6815053 17.95548411 -11.03132375 13.73975541 -9 9 C-6.46385588 5.21997048 -3.78449658 2.52299772 0 0 Z " fill="#8D8923" transform="translate(28,17)"/>
<path d="M0 0 C0 3.90432869 -0.68373308 6.38026598 -2 10 C-1.34 10 -0.68 10 0 10 C-0.33 9.01 -0.66 8.02 -1 7 C-0.34 6.01 0.32 5.02 1 4 C1.99 4.33 2.98 4.66 4 5 C4 6.98 4 8.96 4 11 C5.65 11 7.3 11 9 11 C9 11.33 9 11.66 9 12 C2.07 12 -4.86 12 -12 12 C-12.33 8.04 -12.66 4.08 -13 0 C-4.57142857 -2.57142857 -4.57142857 -2.57142857 0 0 Z " fill="#F3A837" transform="translate(52,52)"/>
<path d="M0 0 C0.66 0.66 1.32 1.32 2 2 C1.625 5.125 1.625 5.125 1 8 C-1.31 7.34 -3.62 6.68 -6 6 C-5.67 8.31 -5.34 10.62 -5 13 C-7.39275175 12.44782652 -9.62223901 11.77493483 -11.9375 10.9375 C-14.83862749 10.04939975 -16.9960415 9.82329656 -20 10 C-20.33 9.34 -20.66 8.68 -21 8 C-15.1986769 1.29222017 -8.78320375 -0.75717274 0 0 Z " fill="#F2A83A" transform="translate(49,21)"/>
<path d="M0 0 C3.37782833 3.37782833 3.20921617 6.86284724 3.5 11.4375 C3.74244142 15.84020478 3.74244142 15.84020478 4.58984375 20.14453125 C5.34747183 23.57189637 3.93879237 26.68661516 3 30 C2.34 30 1.68 30 1 30 C-0.6446674 32.46326712 -0.6446674 32.46326712 -2 35 C-0.39592672 35.02708567 1.2082785 35.04643483 2.8125 35.0625 C4.15248047 35.07990234 4.15248047 35.07990234 5.51953125 35.09765625 C8.13413791 35.11009967 8.13413791 35.11009967 11 34 C10.67 36.31 10.34 38.62 10 41 C9.34 40.34 8.68 39.68 8 39 C8.33 38.34 8.66 37.68 9 37 C8.11248047 37.10828125 8.11248047 37.10828125 7.20703125 37.21875 C3.11738278 37.69910023 -0.8738531 38.13310151 -5 38 C-4.74109357 36.60190528 -4.46722539 35.20657858 -4.1875 33.8125 C-4.03667969 33.03519531 -3.88585937 32.25789063 -3.73046875 31.45703125 C-3 29 -3 29 -1.5 26.625 C0.31195695 23.45407534 0.71359599 20.79646134 1.1875 17.1875 C1.34605469 16.02605469 1.50460938 14.86460938 1.66796875 13.66796875 C1.77753906 12.78753906 1.88710937 11.90710937 2 11 C0.68 11 -0.64 11 -2 11 C-1.67 9.35 -1.34 7.7 -1 6 C-1.66 5.67 -2.32 5.34 -3 5 C-2.01 4.34 -1.02 3.68 0 3 C0 2.01 0 1.02 0 0 Z " fill="#735840" transform="translate(71,29)"/>
<path d="M0 0 C0.98291016 0.00322266 1.96582031 0.00644531 2.97851562 0.00976562 C4.51475586 0.02233398 4.51475586 0.02233398 6.08203125 0.03515625 C7.11779297 0.03966797 8.15355469 0.04417969 9.22070312 0.04882812 C11.77870391 0.06061615 14.33658858 0.0770711 16.89453125 0.09765625 C17.22453125 1.08765625 17.55453125 2.07765625 17.89453125 3.09765625 C17.23453125 3.09765625 16.57453125 3.09765625 15.89453125 3.09765625 C15.64703125 3.90203125 15.39953125 4.70640625 15.14453125 5.53515625 C13.89453125 8.09765625 13.89453125 8.09765625 12.08203125 9.09765625 C9.03558891 9.09765625 7.44020604 7.71198661 4.89453125 6.09765625 C1.51079479 5.13087441 0.28801662 4.96649446 -3.10546875 6.09765625 C-5.29296875 5.66015625 -5.29296875 5.66015625 -7.10546875 5.09765625 C-7.43546875 3.77765625 -7.76546875 2.45765625 -8.10546875 1.09765625 C-5.10530963 0.09760321 -3.13123119 -0.0180996 0 0 Z " fill="#83D3EB" transform="translate(51.10546875,68.90234375)"/>
<path d="M0 0 C3.1875 0.3125 3.1875 0.3125 5.5625 2.1875 C7.1875 4.3125 7.1875 4.3125 7.1875 6.3125 C8.5075 5.9825 9.8275 5.6525 11.1875 5.3125 C11.47321429 12.74107143 11.47321429 12.74107143 9.1875 16.3125 C8.5275 15.9825 7.8675 15.6525 7.1875 15.3125 C7.5175 14.9825 7.8475 14.6525 8.1875 14.3125 C8.22813832 12.64632885 8.230221 10.97861905 8.1875 9.3125 C7.1975 10.6325 6.2075 11.9525 5.1875 13.3125 C4.589375 13.126875 3.99125 12.94125 3.375 12.75 C1.02341238 12.09156313 1.02341238 12.09156313 -1.8125 13.3125 C-3.0959998 9.2213444 -4.19271934 5.6216525 -3.8125 1.3125 C-2.8125 0.3125 -2.8125 0.3125 0 0 Z " fill="#554C3C" transform="translate(32.8125,33.6875)"/>
<path d="M0 0 C0.66 0 1.32 0 2 0 C1.835 0.7425 1.67 1.485 1.5 2.25 C0.00456536 13.46575982 1.43446355 21.26509782 6.6875 31.1875 C9.45316424 33.35518278 10.22987577 33.19549973 13.625 32.875 C16.0280673 32.483803 17.82010344 32.08994828 20 31 C20.99 31.66 21.98 32.32 23 33 C20.72946086 34.13526957 19.14624264 34.19909935 16.625 34.375 C12.96231915 34.70483767 12.96231915 34.70483767 9.875 36.625 C8 38 8 38 4.25 37.6875 C2.64125 37.3471875 2.64125 37.3471875 1 37 C1 36.67 1 36.34 1 36 C3.31 36 5.62 36 8 36 C6.71034824 34.62437146 5.37310707 33.29233607 4 32 C3.34 32 2.68 32 2 32 C-1.25681347 28.74318653 -2.25237898 26.01802755 -2.265625 21.4453125 C-2.26820312 20.58292969 -2.27078125 19.72054687 -2.2734375 18.83203125 C-2.26570312 17.93871094 -2.25796875 17.04539062 -2.25 16.125 C-2.25773438 15.23941406 -2.26546875 14.35382812 -2.2734375 13.44140625 C-2.25889497 8.56238628 -1.90311892 4.57654789 0 0 Z " fill="#766156" transform="translate(16,30)"/>
<path d="M0 0 C0.66 0 1.32 0 2 0 C6 6.875 6 6.875 6 8 C6.99 7.01 7.98 6.02 9 5 C9.33 6.32 9.66 7.64 10 9 C10.99 8.67 11.98 8.34 13 8 C12.01 7.01 11.02 6.02 10 5 C11.32 3.68 12.64 2.36 14 1 C14 1.99 14 2.98 14 4 C14.66 4.33 15.32 4.66 16 5 C15.09232898 6.44319692 14.17343894 7.87934106 13.25 9.3125 C12.73953125 10.11300781 12.2290625 10.91351563 11.703125 11.73828125 C9.96156297 14.05104367 8.50516446 15.55170179 6 17 C2.75 16.1875 2.75 16.1875 0 15 C0.185625 14.43539062 0.37125 13.87078125 0.5625 13.2890625 C1.07189706 10.62382433 0.69746958 8.98179257 0 6.375 C-1.10629067 2.21258134 -1.10629067 2.21258134 0 0 Z " fill="#F7F31B" transform="translate(56,48)"/>
<path d="M0 0 C3.14281087 3.14281087 3.49634065 6.66852961 4 11 C4.66 11 5.32 11 6 11 C6.33 10.34 6.66 9.68 7 9 C6.67 11.31 6.34 13.62 6 16 C4.68 16.33 3.36 16.66 2 17 C2.226875 16.4225 2.45375 15.845 2.6875 15.25 C3.27095593 12.89006205 3.27095593 12.89006205 1.5625 10.875 C0.7890625 9.946875 0.7890625 9.946875 0 9 C0 8.34 0 7.68 0 7 C-0.66 7 -1.32 7 -2 7 C-2 6.01 -2 5.02 -2 4 C-2.66 4 -3.32 4 -4 4 C-4.33 4.99 -4.66 5.98 -5 7 C-7.31 7 -9.62 7 -12 7 C-12.33 5.02 -12.66 3.04 -13 1 C-9.05392751 -0.97303625 -4.29231277 -0.57317682 0 0 Z " fill="#5A4F39" transform="translate(58,41)"/>
<path d="M0 0 C1.65 0 3.3 0 5 0 C5 0.99 5 1.98 5 3 C5.99 3.66 6.98 4.32 8 5 C7.3125 6.9375 7.3125 6.9375 6 9 C4.33333333 9.33333333 2.66666667 9.66666667 1 10 C0.34 11.32 -0.32 12.64 -1 14 C-17.5 14 -34 14 -51 14 C-51 13.67 -51 13.34 -51 13 C-35.49 12.67 -19.98 12.34 -4 12 C0.2981424 4.89442719 0.2981424 4.89442719 0 0 Z " fill="#F33F39" transform="translate(75,66)"/>
<path d="M0 0 C2.64 0 5.28 0 8 0 C3 4 3 4 0.5 5.75 C-2.37975217 8.34177695 -4.00625438 11.03396547 -5.88671875 14.390625 C-6.25410156 14.92171875 -6.62148438 15.4528125 -7 16 C-7.66 16 -8.32 16 -9 16 C-9.90651151 21.8923248 -10.02845468 27.50083223 -9.83984375 33.4609375 C-10 36 -10 36 -12 38 C-14.54090517 29.60484933 -13.25145183 20.30222861 -11 12 C-10.34 12 -9.68 12 -9 12 C-7.51854374 10.31255101 -7.51854374 10.31255101 -6.0625 8.1875 C-4.18914197 5.55713284 -2.2870097 3.27335591 0 1 C0 0.67 0 0.34 0 0 Z " fill="#9E5C5C" transform="translate(25,14)"/>
<path d="M0 0 C0.928125 0.350625 1.85625 0.70125 2.8125 1.0625 C5.9802953 2.32382628 5.9802953 2.32382628 9 1 C17.98178249 0.36969947 25.82222826 2.52222683 33 8 C31.625 10 31.625 10 30 12 C29.34 12 28.68 12 28 12 C27.34 11.34 26.68 10.68 26 10 C25.01 9.34 24.02 8.68 23 8 C23.33 7.01 23.66 6.02 24 5 C21.11788698 4.03929566 19.30149956 3.89418117 16.3125 3.9375 C15.50425781 3.94652344 14.69601563 3.95554687 13.86328125 3.96484375 C13.24839844 3.97644531 12.63351563 3.98804688 12 4 C12 4.99 12 5.98 12 7 C9.69 7.33 7.38 7.66 5 8 C4.34 7.01 3.68 6.02 3 5 C1.68 5.33 0.36 5.66 -1 6 C-1 3 -1 3 0 0 Z " fill="#7B7D2F" transform="translate(31,11)"/>
<path d="M0 0 C0.66 0.99 1.32 1.98 2 3 C3.99338221 3.37086181 5.99512332 3.69737711 8 4 C14.44067797 6.25423729 14.44067797 6.25423729 16.5 9 C17 11 17 11 16 14 C14.25 13.8125 14.25 13.8125 12 13 C11.38125 12.154375 10.7625 11.30875 10.125 10.4375 C8.19040312 7.66880747 8.19040312 7.66880747 4.875 7.625 C2.06266243 7.83209683 2.06266243 7.83209683 0 9 C0 7.35 0 5.7 0 4 C-0.66 4 -1.32 4 -2 4 C-1.34 2.68 -0.68 1.36 0 0 Z " fill="#735E35" transform="translate(28,27)"/>
<path d="M0 0 C0 3 0 3 -0.88671875 5.16796875 C-4.38898585 8.20413007 -8.34926613 7.45606363 -12.8125 7.3125 C-13.70259766 7.30283203 -14.59269531 7.29316406 -15.50976562 7.28320312 C-20.09959861 7.204948 -24.48685486 6.91754852 -29 6 C-28.67 5.34 -28.34 4.68 -28 4 C-21.47268403 2.95599258 -14.91495313 2.72947996 -8.375 3.6875 C-4.61490521 4.23508957 -4.61490521 4.23508957 -1.375 2.0625 C-0.92125 1.381875 -0.4675 0.70125 0 0 Z " fill="#404040" transform="translate(67,60)"/>
<path d="M0 0 C0.80824219 0.19464844 1.61648437 0.38929687 2.44921875 0.58984375 C3.06410156 0.74582031 3.67898437 0.90179688 4.3125 1.0625 C4.6425 3.3725 4.9725 5.6825 5.3125 8.0625 C4.3225 7.7325 3.3325 7.4025 2.3125 7.0625 C1.9825 8.0525 1.6525 9.0425 1.3125 10.0625 C0.3225 10.0625 -0.6675 10.0625 -1.6875 10.0625 C-1.3575 8.7425 -1.0275 7.4225 -0.6875 6.0625 C-1.6775 6.5575 -1.6775 6.5575 -2.6875 7.0625 C-3.0175 8.0525 -3.3475 9.0425 -3.6875 10.0625 C-4.35904933 8.77336513 -5.02458859 7.48109796 -5.6875 6.1875 C-6.05875 5.46820313 -6.43 4.74890625 -6.8125 4.0078125 C-7.6875 2.0625 -7.6875 2.0625 -7.6875 0.0625 C-4.39053895 -1.03648702 -3.28255097 -0.80874444 0 0 Z " fill="#97D2E6" transform="translate(18.6875,66.9375)"/>
<path d="M0 0 C0.33 0 0.66 0 1 0 C1 1.98 1 3.96 1 6 C4.96 6 8.92 6 13 6 C13 6.66 13 7.32 13 8 C14.32 7.67 15.64 7.34 17 7 C16.85904936 8.6254308 16.71207913 10.25034051 16.5625 11.875 C16.48128906 12.77992187 16.40007812 13.68484375 16.31640625 14.6171875 C16 17 16 17 15 19 C14.34 19 13.68 19 13 19 C11.68 15.7 10.36 12.4 9 9 C5.7 8.67 2.4 8.34 -1 8 C-0.67 5.36 -0.34 2.72 0 0 Z " fill="#F3AA39" transform="translate(49,33)"/>
<path d="M0 0 C4.29 0 8.58 0 13 0 C13 0.33 13 0.66 13 1 C11.35 1 9.7 1 8 1 C8.66 1.33 9.32 1.66 10 2 C10 2.99 10 3.98 10 5 C10.66 5.33 11.32 5.66 12 6 C10.91332031 6.07347656 10.91332031 6.07347656 9.8046875 6.1484375 C4.58541133 6.55206152 -0.09813658 7.01275807 -5 9 C-5 8.01 -5 7.02 -5 6 C-6.32 5.34 -7.64 4.68 -9 4 C-6.6875 2.4375 -6.6875 2.4375 -4 1 C-3.01 1.33 -2.02 1.66 -1 2 C-1.66 2 -2.32 2 -3 2 C-2.67 2.66 -2.34 3.32 -2 4 C-1.01 4 -0.02 4 1 4 C2.32 4 3.64 4 5 4 C5 3.01 5 2.02 5 1 C3.35 1 1.7 1 0 1 C0 0.67 0 0.34 0 0 Z " fill="#EDEC23" transform="translate(38,14)"/>
<path d="M0 0 C6.27 0 12.54 0 19 0 C19 0.66 19 1.32 19 2 C19.5775 1.7525 20.155 1.505 20.75 1.25 C21.86375 1.12625 21.86375 1.12625 23 1 C25.0625 2.75 25.0625 2.75 27 5 C27.5775 5.5775 28.155 6.155 28.75 6.75 C29.1625 7.1625 29.575 7.575 30 8 C25.6520818 7.34122452 22.02582681 5.72535435 18 4 C11.74142869 2.23476194 5.30317255 2.73936549 -1 4 C-0.67 2.68 -0.34 1.36 0 0 Z " fill="#B17F80" transform="translate(35,10)"/>
<path d="M0 0 C0.66 0.33 1.32 0.66 2 1 C3.87056791 1.2275015 5.74685958 1.40962811 7.625 1.5625 C8.62789062 1.64628906 9.63078125 1.73007813 10.6640625 1.81640625 C11.43492188 1.87699219 12.20578125 1.93757813 13 2 C12.67 3.65 12.34 5.3 12 7 C7.66666667 7 3.33333333 7 -1 7 C-1.04254356 5.00045254 -1.04080783 2.99958364 -1 1 C-0.67 0.67 -0.34 0.34 0 0 Z " fill="#4E7E8D" transform="translate(28,68)"/>
<path d="M0 0 C0.99386719 0.10183594 1.98773438 0.20367187 3.01171875 0.30859375 C3.77097656 0.39238281 4.53023437 0.47617188 5.3125 0.5625 C5.6425 2.5425 5.9725 4.5225 6.3125 6.5625 C5.3225 5.9025 4.3325 5.2425 3.3125 4.5625 C2.3225 5.0575 2.3225 5.0575 1.3125 5.5625 C0.3225 5.5625 -0.6675 5.5625 -1.6875 5.5625 C-2.9559375 5.624375 -2.9559375 5.624375 -4.25 5.6875 C-6.6875 5.5625 -6.6875 5.5625 -8.6875 3.5625 C-8.6875 2.5725 -8.6875 1.5825 -8.6875 0.5625 C-5.3763987 -0.54120043 -3.44001051 -0.36423641 0 0 Z " fill="#649DB1" transform="translate(51.6875,69.4375)"/>
<path d="M0 0 C5.80188679 4.64150943 5.80188679 4.64150943 7.3125 7.375 C8.86303446 9.23311078 8.86303446 9.23311078 11.109375 9.05859375 C14.29855562 8.73866003 17.1164139 8.44179305 20 7 C20.99 7.66 21.98 8.32 23 9 C20.72946086 10.13526957 19.14624264 10.19909935 16.625 10.375 C12.96231915 10.70483767 12.96231915 10.70483767 9.875 12.625 C8 14 8 14 4.25 13.6875 C3.1775 13.460625 2.105 13.23375 1 13 C1 12.67 1 12.34 1 12 C3.31 12 5.62 12 8 12 C6.71034824 10.62437146 5.37310707 9.29233607 4 8 C3.34 8 2.68 8 2 8 C0 6 0 6 -1 4 C-0.5625 1.875 -0.5625 1.875 0 0 Z " fill="#787660" transform="translate(16,54)"/>
<path d="M0 0 C-0.04125 1.010625 -0.0825 2.02125 -0.125 3.0625 C0.00573843 7.18076052 0.73250786 10.11830533 2 14 C1.34 14.66 0.68 15.32 0 16 C-0.33 14.68 -0.66 13.36 -1 12 C-1.66 12 -2.32 12 -3 12 C-3.33 13.65 -3.66 15.3 -4 17 C-4.66 17 -5.32 17 -6 17 C-6.15607588 14.1906341 -6.24091457 12.44167672 -4.875 9.9375 C-4.441875 8.9784375 -4.441875 8.9784375 -4 8 C-4.78309467 5.76529595 -4.78309467 5.76529595 -6 4 C-2.25 0 -2.25 0 0 0 Z " fill="#463A27" transform="translate(56,45)"/>
<path d="M0 0 C0.66 0 1.32 0 2 0 C2.12117188 0.56847656 2.24234375 1.13695312 2.3671875 1.72265625 C3.1860175 5.49557294 4.03107086 9.23376848 5.125 12.9375 C6 16 6 16 6 18 C5.01 18.33 4.02 18.66 3 19 C3 16.36 3 13.72 3 11 C2.34 10.67 1.68 10.34 1 10 C0.01 13.465 0.01 13.465 -1 17 C-1.33 17 -1.66 17 -2 17 C-2.05441656 15.10448978 -2.09298035 13.2085208 -2.125 11.3125 C-2.14820312 10.25675781 -2.17140625 9.20101562 -2.1953125 8.11328125 C-1.99858729 4.97748141 -1.33057654 2.82354627 0 0 Z " fill="#F6AD39" transform="translate(26,31)"/>
<path d="M0 0 C2.4375 0.6875 2.4375 0.6875 5 2 C6 4.375 6 4.375 6 7 C4.55098831 9.48402004 3.57567437 10.71216281 1 12 C1 11.01 1 10.02 1 9 C1.66 9 2.32 9 3 9 C2.34 7.68 1.68 6.36 1 5 C-0.0828125 5.7734375 -0.0828125 5.7734375 -1.1875 6.5625 C-4.4195366 8.21442982 -5.61608307 8.06351675 -9 7 C-6.60490662 4.10067643 -4.68754757 3.49831724 -1 3 C-0.67 2.01 -0.34 1.02 0 0 Z " fill="#6E2220" transform="translate(80,57)"/>
<path d="M0 0 C2.475 0.495 2.475 0.495 5 1 C4.01 1.495 4.01 1.495 3 2 C3.33 2.99 3.66 3.98 4 5 C4.99 5.33 5.98 5.66 7 6 C7 6.66 7 7.32 7 8 C7.66 8 8.32 8 9 8 C9.33 7.01 9.66 6.02 10 5 C10.66 5 11.32 5 12 5 C12.33 5.99 12.66 6.98 13 8 C12.67 8.66 12.34 9.32 12 10 C12.66 10.33 13.32 10.66 14 11 C13 12 13 12 10.4375 12.0625 C9.633125 12.041875 8.82875 12.02125 8 12 C8 11.34 8 10.68 8 10 C7.21625 9.690625 6.4325 9.38125 5.625 9.0625 C3 8 3 8 1 7 C0.59270772 4.67843403 0.25561323 2.3431213 0 0 Z " fill="#EFEE20" transform="translate(52,15)"/>
<path d="M0 0 C0.33 0 0.66 0 1 0 C1.28571429 7.42857143 1.28571429 7.42857143 -1 11 C-1.66 10.67 -2.32 10.34 -3 10 C-2.67 9.67 -2.34 9.34 -2 9 C-1.95936168 7.33382885 -1.957279 5.66611905 -2 4 C-2.99 5.32 -3.98 6.64 -5 8 C-5.598125 7.814375 -6.19625 7.62875 -6.8125 7.4375 C-9.16408762 6.77906313 -9.16408762 6.77906313 -12 8 C-11.67 6.68 -11.34 5.36 -11 4 C-10.34 4 -9.68 4 -9 4 C-8.67 3.01 -8.34 2.02 -8 1 C-6.865625 1.020625 -5.73125 1.04125 -4.5625 1.0625 C-1.18424326 1.41577477 -1.18424326 1.41577477 0 0 Z " fill="#655A45" transform="translate(43,39)"/>
<path d="M0 0 C1.65 0 3.3 0 5 0 C5 0.99 5 1.98 5 3 C5.99 3.66 6.98 4.32 8 5 C7.34 6.32 6.68 7.64 6 9 C3.69 9 1.38 9 -1 9 C-0.67 6.03 -0.34 3.06 0 0 Z " fill="#EB130E" transform="translate(75,66)"/>
<path d="M0 0 C2.64 0 5.28 0 8 0 C3 4 3 4 0.4375 5.875 C-2.33623135 8.29312476 -4.08269792 10.87550772 -6 14 C-6.66 13.67 -7.32 13.34 -8 13 C-7.22793287 7.78854686 -3.57813899 4.57813899 0 1 C0 0.67 0 0.34 0 0 Z " fill="#BE7F7E" transform="translate(25,14)"/>
<path d="M0 0 C0.33 0.99 0.66 1.98 1 3 C0.67 3.66 0.34 4.32 0 5 C1.60407328 5.02708567 3.2082785 5.04643483 4.8125 5.0625 C6.15248047 5.07990234 6.15248047 5.07990234 7.51953125 5.09765625 C10.13413791 5.11009967 10.13413791 5.11009967 13 4 C12.67 6.31 12.34 8.62 12 11 C11.34 10.34 10.68 9.68 10 9 C10.33 8.34 10.66 7.68 11 7 C10.40832031 7.0721875 9.81664063 7.144375 9.20703125 7.21875 C5.11738278 7.69910023 1.1261469 8.13310151 -3 8 C-2.45276317 4.62537285 -1.9451 2.91765 0 0 Z " fill="#B75352" transform="translate(69,59)"/>
<path d="M0 0 C2.31 0.33 4.62 0.66 7 1 C7.99 3.97 8.98 6.94 10 10 C8.68 10.33 7.36 10.66 6 11 C6 8.69 6 6.38 6 4 C4.35 4.33 2.7 4.66 1 5 C0.67 3.35 0.34 1.7 0 0 Z " fill="#F0A939" transform="translate(30,51)"/>
<path d="M0 0 C0.99 0.33 1.98 0.66 3 1 C3 2.98 3 4.96 3 7 C4.65 7 6.3 7 8 7 C8 7.33 8 7.66 8 8 C1.07 8 -5.86 8 -13 8 C-13 7.67 -13 7.34 -13 7 C-7.06 6.505 -7.06 6.505 -1 6 C-1.33 5.01 -1.66 4.02 -2 3 C-1.34 2.01 -0.68 1.02 0 0 Z " fill="#B08E47" transform="translate(53,56)"/>
<path d="M0 0 C1.32 0.33 2.64 0.66 4 1 C4.66 3.97 5.32 6.94 6 10 C6.66 10 7.32 10 8 10 C8.33 9.34 8.66 8.68 9 8 C8.67 10.31 8.34 12.62 8 15 C6.68 15.33 5.36 15.66 4 16 C4.226875 15.4225 4.45375 14.845 4.6875 14.25 C5.27731491 11.94176272 5.27731491 11.94176272 3.6875 10.25 C1.27446326 7.03261768 0.84864134 3.91680616 0 0 Z " fill="#52411E" transform="translate(56,42)"/>
<path d="M0 0 C0.66 0.33 1.32 0.66 2 1 C3.32860925 1.35169068 4.66158328 1.68770276 6 2 C6.33 3.65 6.66 5.3 7 7 C6.01 7 5.02 7 4 7 C4 7.99 4 8.98 4 10 C3.01 10 2.02 10 1 10 C0.01 7.36 -0.98 4.72 -2 2 C-1.34 2 -0.68 2 0 2 C0 1.34 0 0.68 0 0 Z " fill="#F4F421" transform="translate(65,27)"/>
<path d="M0 0 C0.7425 0.433125 0.7425 0.433125 1.5 0.875 C4.91752035 2.41288416 8.3506202 3.14847805 12 4 C12 4.99 12 5.98 12 7 C9.69 7.33 7.38 7.66 5 8 C4.34 7.01 3.68 6.02 3 5 C1.68 5.33 0.36 5.66 -1 6 C-1 3 -1 3 0 0 Z " fill="#847225" transform="translate(31,11)"/>
<path d="M0 0 C1.32 0.33 2.64 0.66 4 1 C3.01 5.29 2.02 9.58 1 14 C0.34 13.34 -0.32 12.68 -1 12 C-1.99 12.66 -2.98 13.32 -4 14 C-4 13.01 -4 12.02 -4 11 C-3.34 11 -2.68 11 -2 11 C-2.020625 10.05125 -2.04125 9.1025 -2.0625 8.125 C-2 5 -2 5 -1 3 C-0.01 2.67 0.98 2.34 2 2 C1.01 1.67 0.02 1.34 -1 1 C-0.67 0.67 -0.34 0.34 0 0 Z " fill="#EDEB1F" transform="translate(21,30)"/>
<path d="M0 0 C0.66 0 1.32 0 2 0 C3.32 2.31 4.64 4.62 6 7 C4.515 9.475 4.515 9.475 3 12 C1 11 1 11 0.33203125 9.00390625 C0.16058594 8.19824219 -0.01085938 7.39257812 -0.1875 6.5625 C-0.36667969 5.75941406 -0.54585937 4.95632812 -0.73046875 4.12890625 C-1 2 -1 2 0 0 Z " fill="#F2AF3F" transform="translate(56,48)"/>
<path d="M0 0 C1.32 0 2.64 0 4 0 C3.67 0.99 3.34 1.98 3 3 C3.474375 4.010625 3.94875 5.02125 4.4375 6.0625 C6.52208338 10.54722296 6.65502795 15.13407809 6 20 C5.34 20.99 4.68 21.98 4 23 C4.04640625 22.2265625 4.0928125 21.453125 4.140625 20.65625 C4.39116134 13.42648706 3.62398441 9.22872321 0 3 C0 2.01 0 1.02 0 0 Z " fill="#998220" transform="translate(61,27)"/>
<path d="M0 0 C0 1.65 0 3.3 0 5 C-0.99 4.67 -1.98 4.34 -3 4 C-3.33 4.99 -3.66 5.98 -4 7 C-4.99 7 -5.98 7 -7 7 C-7 4.69 -7 2.38 -7 0 C-2.25 -1.125 -2.25 -1.125 0 0 Z " fill="#456E7A" transform="translate(24,70)"/>
<path d="M0 0 C0.99 0.33 1.98 0.66 3 1 C3 1.66 3 2.32 3 3 C3.99 2.67 4.98 2.34 6 2 C4.55746343 5.36591866 2.66735273 7.51047079 0 10 C-0.66 9.67 -1.32 9.34 -2 9 C-2 8.34 -2 7.68 -2 7 C-1.01 6.34 -0.02 5.68 1 5 C0.01 4.01 -0.98 3.02 -2 2 C-1.34 1.34 -0.68 0.68 0 0 Z " fill="#F9F71C" transform="translate(26,20)"/>
<path d="M0 0 C1.98 0 3.96 0 6 0 C7.0625 1.8125 7.0625 1.8125 8 4 C7.67 4.99 7.34 5.98 7 7 C4.20171644 6.61402985 3.1794116 6.19863427 1.25 4.0625 C0 2 0 2 0 0 Z " fill="#A88340" transform="translate(37,34)"/>
<path d="M0 0 C3.73884332 2.65654657 5.64978174 4.58110387 7 9 C6.01 9.33 5.02 9.66 4 10 C3.54625 9.525625 3.0925 9.05125 2.625 8.5625 C1.06741796 6.90972192 1.06741796 6.90972192 -1 6 C-0.67 4.02 -0.34 2.04 0 0 Z " fill="#7E7E1E" transform="translate(64,20)"/>
<path d="M0 0 C-2.49031084 2.07525903 -4.29089974 3.00649557 -7.55859375 2.9765625 C-10.05338223 2.71469818 -12.52365349 2.39910051 -15 2 C-14.67 1.34 -14.34 0.68 -14 0 C-11.34765625 -0.44921875 -11.34765625 -0.44921875 -8.0625 -0.6875 C-6.44021484 -0.81705078 -6.44021484 -0.81705078 -4.78515625 -0.94921875 C-2 -1 -2 -1 0 0 Z " fill="#57595B" transform="translate(53,64)"/>
<path d="M0 0 C0.33 0.66 0.66 1.32 1 2 C1.5775 1.7525 2.155 1.505 2.75 1.25 C3.86375 1.12625 3.86375 1.12625 5 1 C7.0625 2.75 7.0625 2.75 9 5 C9.5775 5.5775 10.155 6.155 10.75 6.75 C11.1625 7.1625 11.575 7.575 12 8 C7.61110675 7.33501617 4.0188515 5.81242323 0 4 C0 3.34 0 2.68 0 2 C-0.66 1.67 -1.32 1.34 -2 1 C-1.34 0.67 -0.68 0.34 0 0 Z " fill="#B66E6D" transform="translate(53,10)"/>
<path d="M0 0 C2 2 2 2 2.1953125 4.1640625 C2.17210938 4.97617187 2.14890625 5.78828125 2.125 6.625 C2.10695313 7.44226562 2.08890625 8.25953125 2.0703125 9.1015625 C2.03550781 10.04128906 2.03550781 10.04128906 2 11 C0.68 11 -0.64 11 -2 11 C-1.67 9.35 -1.34 7.7 -1 6 C-1.66 5.67 -2.32 5.34 -3 5 C-2.01 4.34 -1.02 3.68 0 3 C0 2.01 0 1.02 0 0 Z " fill="#909022" transform="translate(71,29)"/>
<path d="M0 0 C3.51121797 0.2926015 4.80482666 0.8099628 7.375 3.3125 C9 6 9 6 8.6015625 8.16796875 C8.40304688 8.77253906 8.20453125 9.37710937 8 10 C6.66370254 8.52351062 5.33103329 7.0437367 4 5.5625 C3.2575 4.73878906 2.515 3.91507813 1.75 3.06640625 C0 1 0 1 0 0 Z " fill="#D39A9A" transform="translate(63,18)"/>
<path d="M0 0 C1.98 0 3.96 0 6 0 C5.01 0.33 4.02 0.66 3 1 C3.66 2.65 4.32 4.3 5 6 C3.35 6.66 1.7 7.32 0 8 C0 5.33333333 0 2.66666667 0 0 Z " fill="#F40D08" transform="translate(8,66)"/>
<path d="M0 0 C2.31 0 4.62 0 7 0 C5.515 1.98 5.515 1.98 4 4 C4.45375 4.45375 4.9075 4.9075 5.375 5.375 C6.58333333 6.58333333 7.79166667 7.79166667 9 9 C6.35175278 8.64212875 4.44464124 8.31760089 2.25 6.75 C0.68239911 4.55535876 0.35787125 2.64824722 0 0 Z " fill="#942D2F" transform="translate(0,68)"/>
<path d="M0 0 C2.31 0.33 4.62 0.66 7 1 C7 2.32 7 3.64 7 5 C3.7 5 0.4 5 -3 5 C-2.01 4.67 -1.02 4.34 0 4 C0 2.68 0 1.36 0 0 Z " fill="#8BE8F9" transform="translate(65,73)"/>
<path d="M0 0 C0.66 0 1.32 0 2 0 C1.71935082 2.31386295 1.42518311 4.62609008 1.125 6.9375 C0.96257813 8.22527344 0.80015625 9.51304688 0.6328125 10.83984375 C0.42398437 11.88269531 0.21515625 12.92554688 0 14 C-0.99 14.495 -0.99 14.495 -2 15 C-2.21755666 9.5610835 -2.10428384 5.12919186 0 0 Z " fill="#61665D" transform="translate(16,30)"/>
<path d="M0 0 C0.33 2.31 0.66 4.62 1 7 C0.01 7.495 0.01 7.495 -1 8 C-1.33 6.68 -1.66 5.36 -2 4 C-2.66 4 -3.32 4 -4 4 C-4.33 5.65 -4.66 7.3 -5 9 C-5.66 9 -6.32 9 -7 9 C-7.3125 6.75 -7.3125 6.75 -7 4 C-2.89189189 0 -2.89189189 0 0 0 Z " fill="#413018" transform="translate(57,53)"/>
<path d="M0 0 C-0.99 2.31 -1.98 4.62 -3 7 C-3.99 7 -4.98 7 -6 7 C-5.34 6.01 -4.68 5.02 -4 4 C-4.66 4 -5.32 4 -6 4 C-6.33 2.68 -6.66 1.36 -7 0 C-3.86650268 -1.04449911 -3.01031744 -0.93423645 0 0 Z " fill="#A59E1F" transform="translate(35,19)"/>
<path d="M0 0 C0 0.66 0 1.32 0 2 C-0.66 2 -1.32 2 -2 2 C-2.66 3.65 -3.32 5.3 -4 7 C-4.66 6.67 -5.32 6.34 -6 6 C-6.625 2.9375 -6.625 2.9375 -7 0 C-2.25 -1.125 -2.25 -1.125 0 0 Z " fill="#426E7E" transform="translate(69,70)"/>
<path d="M0 0 C1.98567708 0.09765625 3.97135417 0.1953125 5.95703125 0.29296875 C5.62703125 1.28296875 5.29703125 2.27296875 4.95703125 3.29296875 C1.65703125 3.29296875 -1.64296875 3.29296875 -5.04296875 3.29296875 C-2.04296875 0.29296875 -2.04296875 0.29296875 0 0 Z " fill="#515256" transform="translate(30.04296875,63.70703125)"/>
<path d="M0 0 C2.0625 0.4375 2.0625 0.4375 4 1 C4 2.65 4 4.3 4 6 C3.01 5.67 2.02 5.34 1 5 C0.67 5.66 0.34 6.32 0 7 C-1 6 -1 6 -1.125 3.5 C-1 1 -1 1 0 0 Z " fill="#4C422E" transform="translate(30,34)"/>
<path d="M0 0 C0.66 0.33 1.32 0.66 2 1 C-0.97 4.96 -0.97 4.96 -4 9 C-4.66 8.67 -5.32 8.34 -6 8 C-5.38722388 5.03824877 -4.74627478 3.61941217 -3 1 C-2.01 0.67 -1.02 0.34 0 0 Z " fill="#C69EA0" transform="translate(23,19)"/>
<path d="M0 0 C0.66 0 1.32 0 2 0 C2.33 0.99 2.66 1.98 3 3 C3.99 3 4.98 3 6 3 C5.01 4.32 4.02 5.64 3 7 C0.525 6.01 0.525 6.01 -2 5 C-2 4.34 -2 3.68 -2 3 C-1.34 3 -0.68 3 0 3 C0 2.01 0 1.02 0 0 Z " fill="#82C4D8" transform="translate(69,69)"/>
<path d="M0 0 C1.98 0.99 3.96 1.98 6 3 C4.12050295 6.57104439 2.82946843 8.54744301 -1 10 C-1 8 -1 8 1 5.875 C1.66 5.25625 2.32 4.6375 3 4 C2.01 3.67 1.02 3.34 0 3 C0 2.01 0 1.02 0 0 Z " fill="#A33332" transform="translate(82,67)"/>
<path d="M0 0 C1.5625 1.1875 1.5625 1.1875 3 3 C2.84946418 6.01071639 2.41319987 7.52068815 0.4375 9.8125 C-0.036875 10.204375 -0.51125 10.59625 -1 11 C-1.33 10.01 -1.66 9.02 -2 8 C-1.34 8 -0.68 8 0 8 C-0.2784375 6.8553125 -0.2784375 6.8553125 -0.5625 5.6875 C-1 3 -1 3 0 0 Z " fill="#5D1B1D" transform="translate(83,58)"/>
<path d="M0 0 C1.32 0.33 2.64 0.66 4 1 C3.01 2.485 3.01 2.485 2 4 C3.32 4.33 4.64 4.66 6 5 C5.67 7.31 5.34 9.62 5 12 C4.33333333 10 3.66666667 8 3 6 C2.01 5.34 1.02 4.68 0 4 C0 2.68 0 1.36 0 0 Z " fill="#6C5E42" transform="translate(43,28)"/>
<path d="M0 0 C2.02045442 0.60183749 4.02111039 1.27306096 6 2 C6.33 2.66 6.66 3.32 7 4 C6.236875 3.938125 5.47375 3.87625 4.6875 3.8125 C1.95474688 3.74101915 1.95474688 3.74101915 0.1875 5.5 C-0.204375 5.995 -0.59625 6.49 -1 7 C-2 4 -2 4 -1.0625 1.8125 C-0.5365625 0.9153125 -0.5365625 0.9153125 0 0 Z " fill="#641F1E" transform="translate(76,75)"/>
<path d="M0 0 C8.57142857 -0.28571429 8.57142857 -0.28571429 12 2 C11.67 3.98 11.34 5.96 11 8 C9 5 9 5 9 3 C8.34 3 7.68 3 7 3 C7 2.34 7 1.68 7 1 C4.69 1 2.38 1 0 1 C0 0.67 0 0.34 0 0 Z " fill="#9CEDFB" transform="translate(16,67)"/>
<path d="M0 0 C3.2910841 3.60957611 4.54663921 6.12637153 5 11 C0.07692308 6.81538462 0.07692308 6.81538462 -0.3125 2.6875 C-0.209375 1.800625 -0.10625 0.91375 0 0 Z " fill="#FBAC36" transform="translate(60,28)"/>
<path d="M0 0 C-0.33 0.99 -0.66 1.98 -1 3 C-1.99 2.67 -2.98 2.34 -4 2 C-4 2.66 -4 3.32 -4 4 C-4.99 3.67 -5.98 3.34 -7 3 C-7 2.01 -7 1.02 -7 0 C-3.86650268 -1.04449911 -3.01031744 -0.93423645 0 0 Z " fill="#44717F" transform="translate(50,70)"/>
<path d="M0 0 C2.31 0.66 4.62 1.32 7 2 C4.08235 3.9451 2.37462715 4.45276317 -1 5 C-0.67 3.35 -0.34 1.7 0 0 Z " fill="#E29C2F" transform="translate(51,22)"/>
<path d="M0 0 C2.97 0 5.94 0 9 0 C9 0.99 9 1.98 9 3 C8.34 3 7.68 3 7 3 C6.67 3.66 6.34 4.32 6 5 C5.67 3.68 5.34 2.36 5 1 C3.35 1.33 1.7 1.66 0 2 C0 1.34 0 0.68 0 0 Z " fill="#7FDCF3" transform="translate(66,68)"/>
<path d="M0 0 C2.52588702 2.36292656 3.88820837 3.66462511 5 7 C4.01 7.33 3.02 7.66 2 8 C0 6 0 6 -1 4 C-0.5625 1.875 -0.5625 1.875 0 0 Z " fill="#A56F6F" transform="translate(16,54)"/>
<path d="M0 0 C1.32 0.66 2.64 1.32 4 2 C3.67 3.65 3.34 5.3 3 7 C1.68 5.68 0.36 4.36 -1 3 C-0.67 2.01 -0.34 1.02 0 0 Z " fill="#443C2D" transform="translate(44,33)"/>
<path d="M0 0 C0.33 0 0.66 0 1 0 C1.33 2.64 1.66 5.28 2 8 C1.01 8.33 0.02 8.66 -1 9 C-2.0326802 6.21176345 -2.04509293 5.1322726 -1.0625 2.25 C-0.711875 1.5075 -0.36125 0.765 0 0 Z " fill="#ABA924" transform="translate(18,31)"/>
<path d="M0 0 C0.66 0.33 1.32 0.66 2 1 C2.625 3.5625 2.625 3.5625 3 6 C1.68 6.33 0.36 6.66 -1 7 C-1.04254356 5.00045254 -1.04080783 2.99958364 -1 1 C-0.67 0.67 -0.34 0.34 0 0 Z " fill="#568B9B" transform="translate(28,68)"/>
<path d="M0 0 C0 0.66 0 1.32 0 2 C-0.7425 2.144375 -1.485 2.28875 -2.25 2.4375 C-4.52027739 2.90187492 -6.75759479 3.41863569 -9 4 C-8.34 3.67 -7.68 3.34 -7 3 C-7 2.01 -7 1.02 -7 0 C-4.3333581 -1.33332095 -2.83319697 -0.67102033 0 0 Z " fill="#4B4335" transform="translate(39,46)"/>
<path d="M0 0 C1.98 0 3.96 0 6 0 C6.33 1.65 6.66 3.3 7 5 C6.01 4.34 5.02 3.68 4 3 C3.01 3.495 3.01 3.495 2 4 C1.34 3.67 0.68 3.34 0 3 C0 2.01 0 1.02 0 0 Z " fill="#3D6773" transform="translate(51,71)"/>
<path d="M0 0 C0.66 0 1.32 0 2 0 C2.33 0.66 2.66 1.32 3 2 C3.99 2 4.98 2 6 2 C5.34 3.32 4.68 4.64 4 6 C3.01 6 2.02 6 1 6 C0.67 4.02 0.34 2.04 0 0 Z " fill="#4D4433" transform="translate(45,42)"/>
<path d="M0 0 C0.99 0.33 1.98 0.66 3 1 C2.67 1.33 2.34 1.66 2 2 C3.65 2.33 5.3 2.66 7 3 C7 3.33 7 3.66 7 4 C4.03 4 1.06 4 -2 4 C-1.34 2.68 -0.68 1.36 0 0 Z " fill="#3E3F3F" transform="translate(37,63)"/>
<path d="M0 0 C2.97 0 5.94 0 9 0 C8.01 0.495 8.01 0.495 7 1 C7 1.66 7 2.32 7 3 C2.25 2.25 2.25 2.25 0 0 Z " fill="#6B5F45" transform="translate(49,41)"/>
<path d="M0 0 C0.66 0.33 1.32 0.66 2 1 C2.625 3.5625 2.625 3.5625 3 6 C1.35 5.67 -0.3 5.34 -2 5 C-2.33 4.01 -2.66 3.02 -3 2 C-2.01 2 -1.02 2 0 2 C0 1.34 0 0.68 0 0 Z " fill="#C6C623" transform="translate(69,28)"/>
<path d="M0 0 C0.625 1.875 0.625 1.875 1 4 C0.34 4.66 -0.32 5.32 -1 6 C-3 4.625 -3 4.625 -5 3 C-5 2.34 -5 1.68 -5 1 C-3.35 0.67 -1.7 0.34 0 0 Z " fill="#AFAE1F" transform="translate(51,14)"/>
<path d="M0 0 C1.65 0 3.3 0 5 0 C4.67 0.99 4.34 1.98 4 3 C3.34 2.67 2.68 2.34 2 2 C1.67 2.99 1.34 3.98 1 5 C0.01 5 -0.98 5 -2 5 C-1.34 3.35 -0.68 1.7 0 0 Z " fill="#508292" transform="translate(19,72)"/>
<path d="M0 0 C1.32 0.66 2.64 1.32 4 2 C3.67 2.66 3.34 3.32 3 4 C0.03 4 -2.94 4 -6 4 C-5.34 3.34 -4.68 2.68 -4 2 C-2.68 2 -1.36 2 0 2 C0 1.34 0 0.68 0 0 Z " fill="#651F1F" transform="translate(19,62)"/>
<path d="M0 0 C0.66 0 1.32 0 2 0 C2.33 1.65 2.66 3.3 3 5 C1.35 5.33 -0.3 5.66 -2 6 C-2.33 5.34 -2.66 4.68 -3 4 C-2.34 4 -1.68 4 -1 4 C-0.67 2.68 -0.34 1.36 0 0 Z " fill="#E09A2E" transform="translate(34,55)"/>
<path d="M0 0 C1.65 0 3.3 0 5 0 C4.6875 1.9375 4.6875 1.9375 4 4 C3.01 4.33 2.02 4.66 1 5 C0.67 3.35 0.34 1.7 0 0 Z " fill="#F4EE12" transform="translate(22,57)"/>
<path d="M0 0 C1.98 0.495 1.98 0.495 4 1 C3.01 2.98 2.02 4.96 1 7 C0.34 6.34 -0.32 5.68 -1 5 C-0.625 2.375 -0.625 2.375 0 0 Z " fill="#E0A132" transform="translate(58,53)"/>
<path d="M0 0 C2 1 2 1 2 1 Z " fill="#000000" transform="translate(76,60)"/>
<path d="" fill="#000000" transform="translate(0,0)"/>
<path d="M0 0 C2 1 2 1 2 1 Z " fill="#000000" transform="translate(8,58)"/>
<path d="" fill="#000000" transform="translate(0,0)"/>
<path d="" fill="#000000" transform="translate(0,0)"/>
<path d="" fill="#000000" transform="translate(0,0)"/>
<path d="" fill="#000000" transform="translate(0,0)"/>
<path d="" fill="#000000" transform="translate(0,0)"/>
<path d="" fill="#000000" transform="translate(0,0)"/>
<path d="M0 0 C2 1 2 1 2 1 Z " fill="#000000" transform="translate(65,16)"/>
<path d="M0 0 C2 1 2 1 2 1 Z " fill="#000000" transform="translate(22,16)"/>
<path d="M0 0 C2 1 2 1 2 1 Z " fill="#000000" transform="translate(62,14)"/>
<path d="" fill="#000000" transform="translate(0,0)"/>
<path d="" fill="#000000" transform="translate(0,0)"/>
<path d="" fill="#000000" transform="translate(0,0)"/>
<path d="" fill="#000000" transform="translate(0,0)"/>
<path d="" fill="#000000" transform="translate(0,0)"/>
<path d="" fill="#000000" transform="translate(0,0)"/>
<path d="" fill="#000000" transform="translate(0,0)"/>
<path d="" fill="#000000" transform="translate(0,0)"/>
<path d="" fill="#000000" transform="translate(0,0)"/>
<path d="" fill="#000000" transform="translate(0,0)"/>
<path d="" fill="#000000" transform="translate(0,0)"/>
<path d="" fill="#000000" transform="translate(0,0)"/>
<path d="" fill="#000000" transform="translate(0,0)"/>
<path d="" fill="#000000" transform="translate(0,0)"/>
<path d="" fill="#000000" transform="translate(0,0)"/>
<path d="" fill="#000000" transform="translate(0,0)"/>
<path d="" fill="#000000" transform="translate(0,0)"/>
<path d="" fill="#000000" transform="translate(0,0)"/>
<path d="" fill="#000000" transform="translate(0,0)"/>
<path d="" fill="#000000" transform="translate(0,0)"/>
<path d="" fill="#000000" transform="translate(0,0)"/>
<path d="" fill="#000000" transform="translate(0,0)"/>
<path d="" fill="#000000" transform="translate(0,0)"/>
<path d="" fill="#000000" transform="translate(0,0)"/>
<path d="" fill="#000000" transform="translate(0,0)"/>
<path d="" fill="#000000" transform="translate(0,0)"/>
<path d="" fill="#000000" transform="translate(0,0)"/>
<path d="" fill="#000000" transform="translate(0,0)"/>
<path d="" fill="#000000" transform="translate(0,0)"/>
<path d="" fill="#000000" transform="translate(0,0)"/>
<path d="" fill="#000000" transform="translate(0,0)"/>
<path d="" fill="#000000" transform="translate(0,0)"/>
<path d="" fill="#000000" transform="translate(0,0)"/>
<path d="" fill="#000000" transform="translate(0,0)"/>
<path d="" fill="#000000" transform="translate(0,0)"/>
<path d="" fill="#000000" transform="translate(0,0)"/>
<path d="" fill="#000000" transform="translate(0,0)"/>
<path d="" fill="#000000" transform="translate(0,0)"/>
<path d="" fill="#000000" transform="translate(0,0)"/>
<path d="" fill="#000000" transform="translate(0,0)"/>
<path d="" fill="#000000" transform="translate(0,0)"/>
<path d="" fill="#000000" transform="translate(0,0)"/>
<path d="" fill="#000000" transform="translate(0,0)"/>
<path d="" fill="#000000" transform="translate(0,0)"/>
<path d="" fill="#000000" transform="translate(0,0)"/>
<path d="" fill="#000000" transform="translate(0,0)"/>
<path d="" fill="#000000" transform="translate(0,0)"/>
<path d="" fill="#000000" transform="translate(0,0)"/>
<path d="" fill="#000000" transform="translate(0,0)"/>
</svg>
